<?xml version="1.0" standalone="no"?>
<!DOCTYPE svg PUBLIC "-//W3C//DTD SVG 20010904//EN"
 "http://www.w3.org/TR/2001/REC-SVG-20010904/DTD/svg10.dtd">
<svg version="1.0" xmlns="http://www.w3.org/2000/svg"
 width="1280.000000pt" height="794.000000pt" viewBox="0 0 1280.000000 794.000000"
 preserveAspectRatio="xMidYMid meet">
<g transform="translate(0.000000,794.000000) scale(0.100000,-0.100000)"
fill="#000000" stroke="none">
<path d="M2386 7919 c-237 -34 -373 -87 -475 -184 -31 -29 -71 -60 -89 -69
-49 -25 -111 -85 -133 -128 -19 -36 -75 -348 -125 -688 -12 -80 -24 -129 -34
-138 -8 -7 -62 -47 -120 -89 -124 -90 -320 -283 -412 -406 -138 -187 -231
-367 -310 -602 -72 -215 -189 -933 -448 -2745 -71 -498 -153 -1042 -182 -1210
-57 -332 -62 -399 -36 -535 46 -242 150 -442 326 -627 187 -196 410 -335 667
-418 102 -32 358 -80 430 -80 66 0 277 38 366 66 245 77 473 251 622 476 91
136 385 688 782 1466 110 215 205 392 210 391 6 0 30 -29 54 -66 89 -131 249
-280 396 -369 282 -172 661 -222 990 -133 155 42 314 121 440 218 136 104 285
284 361 433 l24 48 692 -2 691 -3 48 -83 c198 -345 515 -570 897 -638 103 -18
308 -20 407 -4 279 44 519 166 716 362 62 62 150 174 185 235 10 18 24 33 30
33 7 0 97 -165 200 -367 413 -812 707 -1363 802 -1508 156 -236 381 -411 627
-488 200 -62 386 -75 586 -39 323 58 602 199 830 419 216 209 326 409 379 693
25 132 24 149 -20 395 -52 292 -96 579 -190 1245 -173 1225 -258 1787 -366
2408 -46 269 -61 333 -105 459 -155 448 -443 816 -823 1054 -50 31 -88 62 -91
74 -3 11 -25 151 -50 310 -74 472 -79 484 -195 562 -36 24 -88 65 -117 91 -28
25 -73 59 -100 74 -147 85 -499 144 -709 119 -306 -37 -458 -89 -567 -194 -24
-24 -65 -56 -91 -71 -62 -36 -115 -90 -137 -140 -16 -37 -42 -185 -122 -681
l-22 -140 -1123 -3 c-1106 -2 -1124 -2 -1149 -22 -25 -19 -41 -20 -422 -20
-378 0 -397 1 -429 20 -32 20 -51 20 -1152 20 l-1120 0 -14 23 c-7 12 -28 117
-46 232 -57 375 -88 541 -108 582 -23 44 -84 103 -134 129 -18 9 -60 42 -93
73 -109 101 -256 154 -512 185 -162 20 -222 19 -387 -5z"/>
</g>
</svg>
